<?xml version="1.0" encoding="UTF-8" standalone="no" ?>
<!DOCTYPE svg PUBLIC "-//W3C//DTD SVG 1.1//EN" "http://www.w3.org/Graphics/SVG/1.1/DTD/svg11.dtd">
<svg xmlns="http://www.w3.org/2000/svg" xmlns:xlink="http://www.w3.org/1999/xlink" version="1.1" width="1920" height="1080" viewBox="-252 0 1920 1080" xml:space="preserve">
<desc>Created with Fabric.js 5.2.4</desc>
<defs>
</defs>
<rect x="0" y="0" width="100%" height="100%" fill="transparent"></rect>
<g transform="matrix(1 0 0 1 960 540)" id="c96f41d9-047b-4ef4-b3bb-819f89922e6f"  >
<rect style="stroke: none; stroke-width: 1; stroke-dasharray: none; stroke-linecap: butt; stroke-dashoffset: 0; stroke-linejoin: miter; stroke-miterlimit: 4; fill: rgb(255,255,255); fill-rule: nonzero; opacity: 1; visibility: hidden;" vector-effect="non-scaling-stroke"  x="-960" y="-540" rx="0" ry="0" width="1920" height="1080" />
</g>
<g transform="matrix(Infinity NaN NaN Infinity 0 0)" id="af8685c3-923f-4dc8-ab62-767ca2a7593d"  >
</g>
<g transform="matrix(1 0 0 1 707.95 540)"  >
<g style="" vector-effect="non-scaling-stroke"   >
		<g transform="matrix(0.13 0 0 -0.13 -124.36 0.12)"  >
<path style="stroke: none; stroke-width: 1; stroke-dasharray: none; stroke-linecap: butt; stroke-dashoffset: 0; stroke-linejoin: miter; stroke-miterlimit: 4; fill: rgb(0,0,0); fill-rule: nonzero; opacity: 1;" vector-effect="non-scaling-stroke"  transform=" translate(-2562.29, -1998.63)" d="M 2490 2175 C 2383 2127 2341 1991 2404 1895 C 2455 1818 2566 1787 2647 1829 C 2777 1895 2786 2078 2663 2159 C 2617 2189 2537 2196 2490 2175 z M 2653 2097 C 2710 2044 2715 1971 2665 1911 C 2581 1813 2430 1872 2430 2004 C 2430 2047 2434 2057 2469 2091 C 2505 2127 2512 2130 2563 2130 C 2612 2130 2623 2126 2653 2097 z" stroke-linecap="round" />
</g>
		<g transform="matrix(0.13 0 0 -0.13 -36 0.36)"  >
<path style="stroke: none; stroke-width: 1; stroke-dasharray: none; stroke-linecap: butt; stroke-dashoffset: 0; stroke-linejoin: miter; stroke-miterlimit: 4; fill: rgb(0,0,0); fill-rule: nonzero; opacity: 1;" vector-effect="non-scaling-stroke"  transform=" translate(-3225, -1996.77)" d="M 3213 2182 L 3130 2179 L 3130 1995 L 3130 1810 L 3225 1810 C 3320 1810 3320 1810 3320 1835 C 3320 1859 3318 1860 3255 1860 L 3190 1860 L 3190 1915 L 3190 1970 L 3240 1970 C 3289 1970 3290 1971 3290 2000 C 3290 2029 3289 2030 3240 2030 L 3190 2030 L 3190 2080 L 3190 2130 L 3255 2130 C 3317 2130 3320 2131 3320 2154 C 3320 2184 3313 2186 3213 2182 z" stroke-linecap="round" />
</g>
		<g transform="matrix(0.13 0 0 -0.13 154 -0.02)"  >
<path style="stroke: none; stroke-width: 1; stroke-dasharray: none; stroke-linecap: butt; stroke-dashoffset: 0; stroke-linejoin: miter; stroke-miterlimit: 4; fill: rgb(0,0,0); fill-rule: nonzero; opacity: 1;" vector-effect="non-scaling-stroke"  transform=" translate(-4650, -1999.65)" d="M 4520 2048 C 4520 1889 4530 1856 4589 1825 C 4651 1793 4718 1811 4757 1869 C 4778 1900 4780 1914 4780 2046 L 4780 2190 L 4755 2190 L 4730 2190 L 4730 2054 L 4730 1918 L 4701 1889 C 4665 1854 4640 1852 4603 1884 C 4575 1908 4575 1909 4572 2049 L 4568 2190 L 4544 2190 L 4520 2190 L 4520 2048 z" stroke-linecap="round" />
</g>
		<g transform="matrix(0.13 0 0 -0.13 -180.67 0.53)"  >
<path style="stroke: none; stroke-width: 1; stroke-dasharray: none; stroke-linecap: butt; stroke-dashoffset: 0; stroke-linejoin: miter; stroke-miterlimit: 4; fill: rgb(0,0,0); fill-rule: nonzero; opacity: 1;" vector-effect="non-scaling-stroke"  transform=" translate(-2140, -1995.5)" d="M 1950 1995 L 1950 1810 L 1975 1810 C 1999 1810 1999 1810 2002 1926 L 2005 2042 L 2054 1926 C 2102 1813 2104 1810 2134 1810 C 2165 1810 2167 1813 2215 1926 L 2265 2043 L 2268 1926 L 2271 1810 L 2300 1810 L 2330 1810 L 2330 1996 L 2330 2181 L 2298 2178 C 2266 2175 2264 2171 2203 2031 C 2168 1951 2138 1885 2136 1883 C 2135 1881 2104 1947 2069 2030 C 2009 2171 2003 2180 1978 2180 L 1950 2180 L 1950 1995 z" stroke-linecap="round" />
</g>
		<g transform="matrix(0.13 0 0 -0.13 -74.67 0.6)"  >
<path style="stroke: none; stroke-width: 1; stroke-dasharray: none; stroke-linecap: butt; stroke-dashoffset: 0; stroke-linejoin: miter; stroke-miterlimit: 4; fill: rgb(0,0,0); fill-rule: nonzero; opacity: 1;" vector-effect="non-scaling-stroke"  transform=" translate(-2935, -1995)" d="M 2800 1995 L 2800 1810 L 2825 1810 L 2849 1810 L 2852 1943 L 2855 2075 L 2934 1943 C 3006 1822 3015 1810 3041 1810 L 3070 1810 L 3070 1995 L 3070 2180 L 3045 2180 L 3021 2180 L 3018 2048 L 3015 1915 L 2936 2048 C 2864 2168 2855 2180 2829 2180 L 2800 2180 L 2800 1995 z" stroke-linecap="round" />
</g>
		<g transform="matrix(0.13 0 0 -0.13 -1.88 0.6)"  >
<path style="stroke: none; stroke-width: 1; stroke-dasharray: none; stroke-linecap: butt; stroke-dashoffset: 0; stroke-linejoin: miter; stroke-miterlimit: 4; fill: rgb(0,0,0); fill-rule: nonzero; opacity: 1;" vector-effect="non-scaling-stroke"  transform=" translate(-3480.9, -1995)" d="M 3353 2167 C 3356 2160 3381 2114 3409 2065 C 3459 1977 3460 1974 3460 1893 C 3460 1811 3460 1810 3485 1810 C 3510 1810 3510 1811 3510 1900 L 3510 1989 L 3565 2082 C 3615 2167 3618 2175 3599 2178 C 3566 2184 3555 2175 3521 2116 C 3504 2085 3486 2060 3482 2060 C 3478 2060 3459 2087 3441 2120 C 3411 2172 3402 2180 3377 2180 C 3357 2180 3349 2176 3353 2167 z" stroke-linecap="round" />
</g>
		<g transform="matrix(0.13 0 0 -0.13 57.84 0.67)"  >
<path style="stroke: none; stroke-width: 1; stroke-dasharray: none; stroke-linecap: butt; stroke-dashoffset: 0; stroke-linejoin: miter; stroke-miterlimit: 4; fill: rgb(0,0,0); fill-rule: nonzero; opacity: 1;" vector-effect="non-scaling-stroke"  transform=" translate(-3928.81, -1994.5)" d="M 3790 1994 L 3790 1809 L 3826 1812 C 3861 1815 3864 1819 3962 1985 C 4017 2079 4064 2161 4067 2168 C 4070 2176 4062 2180 4042 2180 C 4014 2180 4007 2171 3933 2044 L 3855 1909 L 3852 2044 L 3849 2180 L 3820 2180 L 3790 2180 L 3790 1994 z" stroke-linecap="round" />
</g>
		<g transform="matrix(0.13 0 0 -0.13 75.63 0.6)"  >
<path style="stroke: none; stroke-width: 1; stroke-dasharray: none; stroke-linecap: butt; stroke-dashoffset: 0; stroke-linejoin: miter; stroke-miterlimit: 4; fill: rgb(0,0,0); fill-rule: nonzero; opacity: 1;" vector-effect="non-scaling-stroke"  transform=" translate(-4062.24, -1995)" d="M 4114 2138 C 3999 1956 3922 1833 3916 1823 C 3911 1814 3918 1810 3942 1810 C 3970 1811 3979 1817 4002 1855 L 4029 1900 L 4095 1900 L 4160 1900 L 4160 1855 C 4160 1814 4162 1810 4185 1810 L 4210 1810 L 4210 1995 L 4210 2180 L 4175 2180 C 4145 2180 4137 2174 4114 2138 z M 4160 2025 L 4160 1950 L 4115 1950 C 4090 1950 4070 1953 4070 1957 C 4070 1966 4151 2100 4156 2100 C 4158 2100 4160 2066 4160 2025 z" stroke-linecap="round" />
</g>
		<g transform="matrix(0.13 0 0 -0.13 117.4 0.6)"  >
<path style="stroke: none; stroke-width: 1; stroke-dasharray: none; stroke-linecap: butt; stroke-dashoffset: 0; stroke-linejoin: miter; stroke-miterlimit: 4; fill: rgb(0,0,0); fill-rule: nonzero; opacity: 1;" vector-effect="non-scaling-stroke"  transform=" translate(-4375.5, -1995)" d="M 4280 1995 L 4280 1810 L 4376 1810 L 4471 1810 L 4468 1836 C 4465 1862 4463 1863 4400 1864 L 4335 1865 L 4332 2023 L 4329 2180 L 4305 2180 L 4280 2180 L 4280 1995 z" stroke-linecap="round" />
</g>
		<g transform="matrix(0.13 0 0 -0.13 193.33 0.6)"  >
<path style="stroke: none; stroke-width: 1; stroke-dasharray: none; stroke-linecap: butt; stroke-dashoffset: 0; stroke-linejoin: miter; stroke-miterlimit: 4; fill: rgb(0,0,0); fill-rule: nonzero; opacity: 1;" vector-effect="non-scaling-stroke"  transform=" translate(-4945, -1995)" d="M 4850 1995 L 4850 1810 L 4945 1810 C 5039 1810 5040 1810 5040 1835 C 5040 1858 5037 1859 4973 1862 L 4905 1865 L 4902 1918 L 4899 1970 L 4954 1970 C 5010 1970 5010 1970 5010 2000 C 5010 2030 5009 2030 4955 2030 L 4900 2030 L 4900 2080 L 4900 2130 L 4970 2130 C 5038 2130 5040 2131 5040 2155 C 5040 2180 5040 2180 4945 2180 L 4850 2180 L 4850 1995 z" stroke-linecap="round" />
</g>
</g>
</g>
</svg>