
<svg version="1.0" xmlns="http://www.w3.org/2000/svg"
 width="606.000000pt" height="396.000000pt" viewBox="0 0 606.000000 396.000000"
 preserveAspectRatio="xMidYMid meet">

<g transform="translate(0.000000,396.000000) scale(0.100000,-0.100000)"
fill="#000000" stroke="none">
<path d="M2490 2175 c-107 -48 -149 -184 -86 -280 51 -77 162 -108 243 -66
130 66 139 249 16 330 -46 30 -126 37 -173 16z m163 -78 c57 -53 62 -126 12
-186 -84 -98 -235 -39 -235 93 0 43 4 53 39 87 36 36 43 39 94 39 49 0 60 -4
90 -33z"/>
<path d="M3213 2182 l-83 -3 0 -184 0 -185 95 0 c95 0 95 0 95 25 0 24 -2 25
-65 25 l-65 0 0 55 0 55 50 0 c49 0 50 1 50 30 0 29 -1 30 -50 30 l-50 0 0 50
0 50 65 0 c62 0 65 1 65 24 0 30 -7 32 -107 28z"/>
<path d="M4520 2048 c0 -159 10 -192 69 -223 62 -32 129 -14 168 44 21 31 23
45 23 177 l0 144 -25 0 -25 0 0 -136 0 -136 -29 -29 c-36 -35 -61 -37 -98 -5
-28 24 -28 25 -31 165 l-4 141 -24 0 -24 0 0 -142z"/>
<path d="M1950 1995 l0 -185 25 0 c24 0 24 0 27 116 l3 116 49 -116 c48 -113
50 -116 80 -116 31 0 33 3 81 116 l50 117 3 -117 3 -116 29 0 30 0 0 186 0
185 -32 -3 c-32 -3 -34 -7 -95 -147 -35 -80 -65 -146 -67 -148 -1 -2 -32 64
-67 147 -60 141 -66 150 -91 150 l-28 0 0 -185z"/>
<path d="M2800 1995 l0 -185 25 0 24 0 3 133 3 132 79 -132 c72 -121 81 -133
107 -133 l29 0 0 185 0 185 -25 0 -24 0 -3 -132 -3 -133 -79 133 c-72 120 -81
132 -107 132 l-29 0 0 -185z"/>
<path d="M3353 2167 c3 -7 28 -53 56 -102 50 -88 51 -91 51 -172 0 -82 0 -83
25 -83 25 0 25 1 25 90 l0 89 55 93 c50 85 53 93 34 96 -33 6 -44 -3 -78 -62
-17 -31 -35 -56 -39 -56 -4 0 -23 27 -41 60 -30 52 -39 60 -64 60 -20 0 -28
-4 -24 -13z"/>
<path d="M3790 1994 l0 -185 36 3 c35 3 38 7 136 173 55 94 102 176 105 183 3
8 -5 12 -25 12 -28 0 -35 -9 -109 -136 l-78 -135 -3 135 -3 136 -29 0 -30 0 0
-186z"/>
<path d="M4114 2138 c-115 -182 -192 -305 -198 -315 -5 -9 2 -13 26 -13 28 1
37 7 60 45 l27 45 66 0 65 0 0 -45 c0 -41 2 -45 25 -45 l25 0 0 185 0 185 -35
0 c-30 0 -38 -6 -61 -42z m46 -113 l0 -75 -45 0 c-25 0 -45 3 -45 7 0 9 81
143 86 143 2 0 4 -34 4 -75z"/>
<path d="M4280 1995 l0 -185 96 0 95 0 -3 26 c-3 26 -5 27 -68 28 l-65 1 -3
158 -3 157 -24 0 -25 0 0 -185z"/>
<path d="M4850 1995 l0 -185 95 0 c94 0 95 0 95 25 0 23 -3 24 -67 27 l-68 3
-3 53 -3 52 55 0 c56 0 56 0 56 30 0 30 -1 30 -55 30 l-55 0 0 50 0 50 70 0
c68 0 70 1 70 25 0 25 0 25 -95 25 l-95 0 0 -185z"/>
</g>
</svg>
